<?xml version="1.0" standalone="no"?>
<!DOCTYPE svg PUBLIC "-//W3C//DTD SVG 20010904//EN"
 "http://www.w3.org/TR/2001/REC-SVG-20010904/DTD/svg10.dtd">
<svg version="1.0" xmlns="http://www.w3.org/2000/svg"
 width="4573.000000pt" height="1001.000000pt" viewBox="0 0 4573.000000 1001.000000"
 preserveAspectRatio="xMidYMid meet">
<metadata>
Created by potrace 1.15, written by Peter Selinger 2001-2017
</metadata>
<g transform="translate(0.000000,1001.000000) scale(0.100000,-0.100000)"
fill="#FFFFFF" stroke="none">
<path d="M0 5080 l0 -4900 1270 0 1270 0 0 4900 0 4900 -1270 0 -1270 0 0
-4900z"/>
<path d="M3417 9973 c-4 -3 -7 -2208 -7 -4900 l0 -4893 1113 0 1114 0 6 2273
c4 1249 7 2697 8 3217 l1 945 139 -950 c119 -817 277 -1907 708 -4880 l87
-600 795 -3 794 -2 274 2037 c151 1121 327 2434 392 2918 65 484 135 1002 155
1150 20 149 41 308 48 355 20 144 26 -653 26 -3677 l0 -2783 1110 0 1110 0 0
4900 0 4900 -1659 0 -1659 0 -6 -37 c-3 -21 -44 -335 -91 -698 -353 -2759
-492 -3821 -498 -3805 -3 8 -42 265 -86 570 -44 305 -123 845 -175 1200 -52
355 -106 731 -121 835 -115 842 -250 1762 -281 1908 l-6 27 -1642 0 c-904 0
-1646 -3 -1649 -7z"/>
<path d="M12167 9973 c-4 -3 -7 -2208 -7 -4900 l0 -4893 1673 0 c1865 0 2117
6 2512 56 388 49 700 158 945 328 106 74 260 228 323 323 208 313 281 660 317
1498 13 315 13 4624 0 4995 -30 838 -78 1150 -223 1452 -94 195 -276 436 -423
559 -318 268 -725 423 -1304 499 -366 47 -735 68 -1440 80 -619 11 -2363 13
-2373 3z m2893 -1697 c268 -44 384 -163 420 -431 24 -186 30 -661 30 -2635 0
-2063 -5 -2436 -35 -2707 -39 -352 -94 -471 -249 -544 -106 -50 -311 -89 -466
-89 l-50 0 0 3217 0 3216 133 -6 c72 -4 170 -13 217 -21z"/>
<path d="M18810 5080 l0 -4900 1145 0 1144 0 10 38 c5 20 40 156 77 302 37
146 69 267 71 269 2 3 51 -46 109 -107 243 -257 509 -436 774 -520 115 -37
299 -76 435 -93 130 -17 434 -16 553 0 388 54 716 216 992 491 297 297 399
610 440 1350 14 250 13 3771 -1 4070 -17 372 -42 502 -134 695 -100 209 -261
402 -429 515 -99 66 -293 159 -406 195 -232 72 -433 99 -735 99 -255 -1 -406
-18 -631 -73 -148 -36 -224 -65 -353 -131 -189 -97 -342 -211 -511 -382 l-100
-102 0 1592 0 1592 -1225 0 -1225 0 0 -4900z m2935 975 c102 -18 212 -72 259
-126 61 -72 89 -218 107 -553 15 -283 6 -3249 -10 -3406 -16 -157 -39 -276
-61 -320 -54 -107 -209 -174 -400 -175 -88 0 -101 3 -162 33 -144 71 -185 187
-208 595 -16 264 -8 3426 8 3547 18 131 34 212 50 250 58 141 199 194 417 155z"/>
</g>
</svg>
