<svg className="ipc-logo" width="51" height="13" viewBox="0 0 51 13" xmlns="http://www.w3.org/2000/svg" version="1.1"><g fill="none" fill-rule="evenodd"><g fill="white"><path d="M24.567.026v12.796h2.99l.211-.813c.266.33.564.57.893.739.33.16.812.241 1.19.241.522 0 .98-.136 1.36-.415.384-.273.626-.602.726-.975.105-.377.155-.948.155-1.711v-3.59c0-.776-.013-1.279-.05-1.514-.031-.236-.137-.478-.304-.726A1.666 1.666 0 0 0 31 3.48a2.964 2.964 0 0 0-1.148-.205c-.378 0-.868.075-1.197.23-.322.148-.62.378-.887.682V.026h-3.2zm4.324 9.695c0 .614-.031 1.01-.093 1.172-.062.161-.33.241-.534.241-.198 0-.33-.074-.397-.235-.062-.155-.099-.514-.099-1.08V6.44c0-.583.03-.943.087-1.092.062-.142.192-.217.384-.217.205 0 .477.087.546.249.069.167.106.52.106 1.06v3.282zM.018.026h3.319v12.796H.018zM10.42.026l-.77 5.979-.47-3.25a93.824 93.824 0 0 0-.404-2.73H4.472v12.796H7.38l.012-8.447 1.222 8.447h2.072l1.166-8.633.006 8.633h2.902V.026H10.42zM19.922 12.822c.794 0 1.39-.044 1.787-.13.39-.087.725-.236.992-.46.266-.217.459-.52.564-.905.112-.384.174-1.153.174-2.3V4.534c0-1.21-.05-2.022-.118-2.437a2.286 2.286 0 0 0-.559-1.123c-.291-.335-.725-.577-1.29-.725-.564-.15-1.494-.224-3.1-.224h-2.476v12.796h4.026zm.031-10.488c.13.074.217.192.255.36.037.16.056.532.056 1.11v4.955c0 .856-.056 1.377-.168 1.57-.111.192-.403.285-.88.285V2.216c.359 0 .607.037.737.118z"></path></g><g fill-rule="nonzero"><path fill="rgb(177, 44, 44)" d="M2.75 9.55V2.09H.019V.014h8.083V2.09h-2.73V9.55H2.75z" transform="translate(34.14 3.278)"></path><path fill="rgb(177, 44, 44)" d="M10.061 9.55L6.72.014h2.908L11.5 7.046 13.376.014h2.84L12.874 9.55z" transform="translate(34.14 3.278)"></path></g></g></svg>