<svg class="ipc-logo navbar__imdbpro-menu-toggle__name" width="56" height="13" viewBox="0 0 56 13" version="1.1"><g fill="currentColor"><path d="M43.1161781,1.30854271 L43.1161781,2.6641206 L43.1573833,2.6641206 C43.6948426,1.45447236 44.6855592,1.10050251 45.8637894,1.10050251 L45.8637894,3.72844221 C43.3024973,3.56201005 43.2606949,5.0641206 43.2606949,6.10673367 L43.2606949,11.8444221 L40.3464712,11.8444221 L40.3464712,1.30854271 L43.1161781,1.30854271 Z" fill-rule="nonzero"></path><path d="M35.4334962,0 L30.3927253,0 L30.3927253,11.8444221 L33.5123779,11.8444221 L33.5123779,7.46653266 L35.2477742,7.46653266 C38.9030945,7.46653266 39.3999457,5.6321608 39.3999457,3.92140704 C39.3999457,1.16683417 38.2838219,0 35.4334962,0 Z M34.8811075,5.28603015 L33.5183496,5.28603015 L33.5183496,1.90914573 L34.8811075,1.90914573 C35.858089,1.90914573 36.4492942,2.38371859 36.4492942,3.6440201 C36.4492942,4.48341709 36.1011401,5.28603015 34.8811075,5.28603015 Z" fill-rule="nonzero"></path><path d="M46.4573833,6.32743719 C46.4573833,3.4480402 46.8706298,0.986532663 50.7140608,0.986532663 C54.5574919,0.986532663 54.9689468,3.4480402 54.9689468,6.32743719 C54.9689468,9.62351759 54.4738871,11.9396985 50.7140608,11.9396985 C46.9542345,11.9396985 46.4573833,9.62351759 46.4573833,6.32743719 Z M52.0571118,6.16100503 C52.0571118,3.96964824 51.9538002,2.86432161 50.7140608,2.86432161 C49.4743214,2.86432161 49.3710098,3.96964824 49.3710098,6.16100503 C49.3710098,9.37266332 49.6403366,10.0619095 50.7140608,10.0619095 C51.787785,10.0619095 52.0565147,9.37266332 52.0565147,6.16100503 L52.0571118,6.16100503 Z" fill-rule="nonzero"></path><rect fill-rule="nonzero" x="0" y="0.0301507538" width="3.03843648" height="11.8124623"></rect><path d="M9.51900109,0.0301507538 L8.8155266,5.54773869 L8.38018458,2.54713568 C8.25278683,1.58432161 8.13136084,0.745326633 8.01590662,0.0301507538 L4.07453855,0.0301507538 L4.07453855,11.8426131 L6.73615635,11.8426131 L6.74809989,4.04020101 L7.86840391,11.839598 L9.76444083,11.839598 L10.8268187,3.86653266 L10.8363735,11.839598 L13.4896308,11.839598 L13.4896308,0.0301507538 L9.51900109,0.0301507538 Z"></path><path d="M18.2401737,2.15577889 C18.3613005,2.22685521 18.4456965,2.34775012 18.4712812,2.48683417 C18.5047231,2.63758794 18.5214441,2.97929648 18.5214441,3.5119598 L18.5214441,8.09246231 C18.5214441,8.87919598 18.4710822,9.36160804 18.3703583,9.53969849 C18.2696345,9.71778894 18.0007058,9.80623116 17.5635722,9.80503729 L17.5635722,2.05025126 C17.8944083,2.05025126 18.1199421,2.08542714 18.2401737,2.15577889 Z M18.2085233,11.8426131 C18.9366811,11.8426131 19.4817047,11.8024121 19.8435939,11.7220101 C20.1760582,11.6557965 20.4883129,11.5111601 20.754886,11.2998995 C21.0104507,11.0828833 21.1913005,10.7896393 21.2714441,10.4623116 C21.3705755,10.1053266 21.429696,9.39738693 21.429696,8.33849246 L21.429696,4.18914573 C21.429696,3.07296482 21.3866992,2.32341709 21.3192182,1.94231156 C21.2491064,1.55561593 21.073757,1.19626854 20.8128122,0.904522613 C20.54249,0.592964824 20.1481542,0.369447236 19.6298046,0.233969849 C19.1114549,0.0982914573 18.2658523,0.0295477387 16.7944083,0.0295477387 L14.5251357,0.0295477387 L14.5251357,11.8426131 L18.2085233,11.8426131 Z"></path><path d="M26.416721,8.97527638 C26.416721,9.54693467 26.3886536,9.90874372 26.332519,10.0607035 C26.2763844,10.2102513 26.0339305,10.2868342 25.8458198,10.2868342 C25.657709,10.2868342 25.5472313,10.2132663 25.4833333,10.0673367 C25.4194354,9.92140704 25.3925624,9.59095477 25.3925624,9.07175879 L25.3925624,5.94934673 C25.3925624,5.41025126 25.4192363,5.07417085 25.4725841,4.94110553 C25.525932,4.8080402 25.6429786,4.74150754 25.8237242,4.74150754 C26.0094463,4.74150754 26.2584691,4.81748744 26.3211726,4.97065327 C26.3838762,5.1238191 26.416721,5.44884422 26.416721,5.9481407 L26.416721,8.97527638 Z M22.4652009,0.0301507538 L22.4652009,11.8426131 L25.2008686,11.8426131 L25.3901737,11.0900503 C25.6130801,11.37176 25.8917241,11.6034266 26.2083062,11.7702513 C26.5068947,11.921608 26.9517915,11.9975879 27.2963626,11.9975879 C27.741081,12.0083011 28.1774148,11.8742607 28.5408795,11.6152764 C28.8904271,11.360402 29.1125769,11.0588945 29.207329,10.7107538 C29.3020811,10.3626131 29.349059,9.83497487 29.3482628,9.1278392 L29.3482628,5.8160804 C29.3482628,5.10211055 29.3333333,4.63778894 29.301683,4.41889447 C29.2603631,4.17705181 29.1645365,3.94803829 29.0216069,3.74954774 C28.8515909,3.51011348 28.6163121,3.32574882 28.3444083,3.21889447 C28.0116005,3.08534049 27.6555905,3.02074296 27.297557,3.02894472 C26.9482085,3.02894472 26.5009229,3.09949749 26.2029316,3.23819095 C25.8905716,3.38828976 25.6139569,3.60466937 25.3919653,3.87256281 L25.3919653,0.0301507538 L22.4652009,0.0301507538 Z"></path></g></svg>