<svg width="24" height="24" xmlns="http://www.w3.org/2000/svg" className="ipc-icon ipc-icon--twitter" viewBox="0 0 24 24" fill="white" role="presentation"><path d="M8.29 19.936c7.547 0 11.675-6.13 11.675-11.446 0-.175-.004-.348-.012-.52A8.259 8.259 0 0 0 22 5.886a8.319 8.319 0 0 1-2.356.633 4.052 4.052 0 0 0 1.804-2.225c-.793.46-1.67.796-2.606.976A4.138 4.138 0 0 0 15.847 4c-2.266 0-4.104 1.802-4.104 4.023 0 .315.036.622.107.917a11.728 11.728 0 0 1-8.458-4.203 3.949 3.949 0 0 0-.556 2.022 4 4 0 0 0 1.826 3.348 4.136 4.136 0 0 1-1.858-.503l-.001.051c0 1.949 1.415 3.575 3.292 3.944a4.193 4.193 0 0 1-1.853.07c.522 1.597 2.037 2.76 3.833 2.793a8.34 8.34 0 0 1-5.096 1.722A8.51 8.51 0 0 1 2 18.13a11.785 11.785 0 0 0 6.29 1.807"></path></svg>