<svg width="24" height="24" xmlns="http://www.w3.org/2000/svg" className="ipc-icon ipc-icon--youtube" viewBox="0 0 24 24" fill="white" role="presentation"><path d="M9.955 14.955v-5.91L15.182 12l-5.227 2.955zm11.627-7.769a2.505 2.505 0 0 0-1.768-1.768C18.254 5 12 5 12 5s-6.254 0-7.814.418c-.86.23-1.538.908-1.768 1.768C2 8.746 2 12 2 12s0 3.254.418 4.814c.23.86.908 1.538 1.768 1.768C5.746 19 12 19 12 19s6.254 0 7.814-.418a2.505 2.505 0 0 0 1.768-1.768C22 15.254 22 12 22 12s0-3.254-.418-4.814z"></path></svg>